<svg width="4421" height="908" viewBox="0 0 4421 908" fill="none" xmlns="http://www.w3.org/2000/svg">
<circle cx="415" cy="454" r="415" fill="black"/>
<path fill-rule="evenodd" clip-rule="evenodd" d="M651.694 795.166L573.58 717.101C527.209 745.071 472.858 761.164 414.746 761.164C244.745 761.164 106.933 623.44 106.933 453.549C106.933 283.657 244.745 145.933 414.746 145.933C584.746 145.933 722.558 283.657 722.558 453.549C722.558 544.924 682.692 626.995 619.393 683.336L695.697 759.591C681.872 772.412 667.171 784.304 651.694 795.166ZM414.746 202.182C275.831 202.182 163.218 314.723 163.218 453.549C163.218 592.374 275.831 704.915 414.746 704.915C553.66 704.915 666.273 592.374 666.273 453.549C666.273 314.723 553.66 202.182 414.746 202.182Z" fill="white"/>
<path fill-rule="evenodd" clip-rule="evenodd" d="M407.038 288.798C412.525 306.251 405.556 324.578 391.186 333.723L401.587 366.81C415.299 364.825 428.937 366.759 441.165 371.902L458.053 339.485C456.821 338.088 455.716 336.55 454.765 334.891C453.762 333.136 452.929 331.247 452.297 329.237C447.698 314.604 455.501 299.111 469.726 294.631C483.951 290.151 499.212 298.383 503.811 313.015C508.411 327.648 500.608 343.142 486.382 347.615C484.179 348.31 481.952 348.7 479.743 348.808L461.223 384.352C469.158 391.218 475.728 399.827 480.281 409.826L519.942 397.338C520.676 382.654 530.649 369.184 545.832 364.404C565.188 358.31 585.682 368.648 591.606 387.498C597.531 406.342 586.643 426.558 567.287 432.652C551.844 437.514 535.676 431.918 526.761 419.883L486.587 432.531C487.605 441.433 486.992 450.271 484.939 458.681L512.686 473.16C515.137 471.38 517.913 469.963 520.961 469C536.123 464.227 552.282 472.663 557.052 487.837C561.823 503.012 553.398 519.182 538.235 523.955C523.072 528.729 506.913 520.299 502.143 505.124C500.935 501.283 500.573 497.377 500.953 493.606L475.795 480.48C468.697 491.934 458.5 501.525 445.932 507.855L457.045 543.208C470.62 543.667 483.152 552.824 487.563 566.851C493.115 584.514 483.696 603.211 466.527 608.616C449.357 614.021 430.938 604.085 425.386 586.428C421.256 573.289 425.412 559.576 434.88 551.191L423.513 515.028C409.859 517.134 396.257 515.354 384.023 510.37L368.137 540.866C373 545.512 376.792 551.408 378.952 558.28C385.774 579.983 373.725 603.115 352.039 609.943C330.353 616.771 307.242 604.711 300.42 583.008C293.598 561.305 305.647 538.179 327.333 531.351C333.985 529.258 340.772 528.939 347.182 530.133L363.84 498.156C356.851 492.247 350.887 485.01 346.382 476.67L304.175 489.956C302.574 499.368 295.727 507.645 285.793 510.772C271.806 515.175 256.995 507.702 252.713 494.085C248.432 480.461 256.3 465.854 270.288 461.444C280.02 458.381 290.149 461.068 296.854 467.57L338.563 454.438C336.4 442.677 337.141 430.903 340.35 419.953L308.347 403.253C306.041 405.2 303.329 406.725 300.287 407.682C287.651 411.657 274.096 404.345 270.011 391.352C265.925 378.353 272.856 364.595 285.492 360.613C298.127 356.638 311.683 363.945 315.769 376.943C316.197 378.309 316.505 379.681 316.697 381.046L350.438 398.652C357.541 388.257 367.293 379.579 379.101 373.772L368.315 339.46C352.979 338.298 339.041 327.718 334.031 311.784C327.512 291.045 338.571 269.093 358.731 262.744C378.892 256.394 400.519 268.059 407.038 288.798Z" fill="white"/>
<path d="M1059.78 181.545H951.377L1143.4 727H1265.39L1457.68 181.545H1349.02L1207.33 610.878H1201.73L1059.78 181.545ZM1525.26 727H1621.68V317.909H1525.26V727ZM1573.74 259.848C1604.36 259.848 1629.4 236.411 1629.4 207.646C1629.4 178.616 1604.36 155.178 1573.74 155.178C1542.84 155.178 1517.81 178.616 1517.81 207.646C1517.81 236.411 1542.84 259.848 1573.74 259.848ZM1720.82 727H1817.23V486.499C1817.23 434.564 1856.38 397.81 1909.38 397.81C1925.63 397.81 1945.87 400.739 1954.13 403.403V314.713C1945.34 313.115 1930.16 312.05 1919.51 312.05C1872.63 312.05 1833.48 338.683 1818.56 386.091H1814.3V317.909H1720.82V727ZM2278.93 554.947C2278.93 617.27 2234.45 648.165 2191.83 648.165C2145.49 648.165 2114.6 615.406 2114.6 563.47V317.909H2018.18V578.385C2018.18 676.663 2074.11 732.327 2154.55 732.327C2215.8 732.327 2258.95 700.1 2277.59 654.29H2281.85V727H2375.34V317.909H2278.93V554.947ZM2797.81 426.041C2784.5 356.794 2729.1 312.582 2633.22 312.582C2534.67 312.582 2467.56 361.055 2467.82 436.695C2467.56 496.354 2504.31 535.771 2582.88 552.018L2652.66 566.666C2690.21 574.923 2707.79 590.104 2707.79 613.275C2707.79 641.24 2677.43 662.281 2631.62 662.281C2587.41 662.281 2558.64 643.104 2550.39 606.35L2456.37 615.406C2468.36 690.512 2531.48 734.99 2631.89 734.99C2734.16 734.99 2806.34 681.989 2806.6 604.486C2806.34 546.158 2768.78 510.469 2691.54 493.69L2621.77 478.776C2580.22 469.454 2563.7 455.072 2563.97 431.368C2563.7 403.669 2594.33 384.493 2634.55 384.493C2679.03 384.493 2702.46 408.729 2709.92 435.629L2797.81 426.041ZM2890.36 727H2989.17V495.288H3215.83V412.458H2989.17V264.376H3239.8V181.545H2890.36V727ZM3439.61 735.256C3503.8 735.256 3542.15 705.161 3559.73 670.803H3562.93V727H3655.61V453.207C3655.61 345.075 3567.45 312.582 3489.42 312.582C3403.39 312.582 3337.34 350.935 3316.03 425.509L3406.06 438.293C3415.64 410.327 3442.81 386.357 3489.95 386.357C3534.7 386.357 3559.2 409.262 3559.2 449.479V451.077C3559.2 478.776 3530.17 480.107 3457.99 487.831C3378.62 496.354 3302.72 520.058 3302.72 612.21C3302.72 692.643 3361.58 735.256 3439.61 735.256ZM3464.65 664.411C3424.43 664.411 3395.67 646.034 3395.67 610.612C3395.67 573.591 3427.9 558.143 3471.04 552.018C3496.34 548.555 3546.95 542.163 3559.46 532.043V580.249C3559.46 625.793 3522.71 664.411 3464.65 664.411ZM3931 734.99C4033.81 734.99 4099.33 673.999 4106.25 587.174H4014.1C4005.84 631.119 3974.15 656.421 3931.8 656.421C3871.61 656.421 3832.72 606.084 3832.72 522.455C3832.72 439.891 3872.41 390.352 3931.8 390.352C3978.14 390.352 4006.64 420.182 4014.1 459.599H4106.25C4099.59 370.91 4030.35 312.582 3930.47 312.582C3810.62 312.582 3734.98 399.141 3734.98 524.053C3734.98 647.898 3808.75 734.99 3931 734.99ZM4389.7 317.909H4309V219.898H4212.59V317.909H4154.52V392.483H4212.59V619.933C4212.05 696.904 4267.98 734.724 4340.43 732.593C4367.86 731.794 4386.77 726.467 4397.16 723.005L4380.91 647.632C4375.58 648.964 4364.66 651.361 4352.68 651.361C4328.44 651.361 4309 642.838 4309 603.953V392.483H4389.7V317.909Z" fill="black"/>
</svg>
